<svg id="Capa_1" enable-background="new 0 0 512 512" height="512" viewBox="0 0 512 512" width="512" xmlns="http://www.w3.org/2000/svg"><g><g><g><g><g><g><g><g><g><circle cx="256" cy="256" fill="#ff8fb8" r="256"/></g></g></g></g></g></g></g></g><path d="m512 256c0-12.948-.961-25.671-2.816-38.102l-110.678-110.678-255.759 120.843-57.789 175.466 10.883 10.883-7.61 3.081 78.519 78.519c27.79 10.338 57.86 15.988 89.25 15.988 141.385 0 256-114.615 256-256z" fill="#ff5f96"/><g><g><g><path d="m88.231 398.923h51.801v18.57h-51.801z" fill="#b674f2"/></g><g><path d="m197.312 398.923h51.801v18.57h-51.801z" fill="#8f4cd6"/></g></g><g><path d="m246 159.141h-154.656c-2.594 5.916-4.686 12.019-6.28 18.245h167.216c-1.594-6.226-3.686-12.33-6.28-18.245z" fill="#a260e5"/></g><g><path d="m246 159.141h-77.563v18.245h83.844c-1.595-6.226-3.687-12.33-6.281-18.245z" fill="#7a3eb5"/></g><g><path d="m85.064 177.385c-2.459 9.603-3.72 19.499-3.72 29.463v188.554c0 6.066 4.917 10.983 10.983 10.983h45.336c5.607 0 10.314-4.223 10.919-9.797l16.26-149.712c.212-1.955 1.863-3.437 3.83-3.437s3.618 1.481 3.83 3.437l16.26 149.712c.605 5.574 5.312 9.797 10.919 9.797h45.336c6.066 0 10.983-4.917 10.983-10.983v-188.554c0-9.964-1.261-19.86-3.72-29.463z" fill="#8f4cd6"/></g><g><path d="m252.28 177.385h-83.844v66.076c.079-.005.155-.022.235-.022 1.967 0 3.618 1.481 3.83 3.437l16.26 149.712c.605 5.574 5.312 9.797 10.919 9.797h45.336c6.066 0 10.983-4.917 10.983-10.983v-188.554c.001-9.964-1.26-19.86-3.719-29.463z" fill="#613394"/></g><g><g><path d="m190.717 200.082c0-4.858 3.938-8.796 8.796-8.796 3.095 0 5.817 1.599 7.385 4.016 1.568-2.417 4.289-4.016 7.385-4.016 4.858 0 8.796 3.938 8.796 8.796 0 9.013-16.181 17.918-16.181 17.918s-16.181-9.773-16.181-17.918z" fill="#b674f2"/></g><g><path d="m215.477 257.837c0-4.858 3.938-8.796 8.796-8.796 3.095 0 5.817 1.599 7.385 4.016 1.568-2.417 4.289-4.016 7.385-4.016 4.858 0 8.796 3.938 8.796 8.796 0 9.013-16.181 17.918-16.181 17.918s-16.181-9.773-16.181-17.918z" fill="#b674f2"/></g><g><path d="m215.477 373.348c0-4.858 3.938-8.796 8.796-8.796 3.095 0 5.817 1.599 7.385 4.016 1.568-2.417 4.289-4.016 7.385-4.016 4.858 0 8.796 3.938 8.796 8.796 0 9.013-16.181 17.918-16.181 17.918s-16.181-9.773-16.181-17.918z" fill="#8f4cd6"/></g><g><path d="m190.717 315.593c0-4.858 3.938-8.796 8.796-8.796 3.095 0 5.817 1.599 7.385 4.016 1.568-2.417 4.289-4.016 7.385-4.016 4.858 0 8.796 3.938 8.796 8.796 0 9.013-16.181 17.918-16.181 17.918s-16.181-9.774-16.181-17.918z" fill="#8f4cd6"/></g><g><path d="m146.627 200.082c0-4.858-3.938-8.796-8.796-8.796-3.095 0-5.817 1.599-7.385 4.016-1.568-2.417-4.289-4.016-7.385-4.016-4.858 0-8.796 3.938-8.796 8.796 0 9.013 16.181 17.918 16.181 17.918s16.181-9.773 16.181-17.918z" fill="#b674f2"/></g><g><path d="m121.866 257.837c0-4.858-3.938-8.796-8.796-8.796-3.095 0-5.817 1.599-7.385 4.016-1.568-2.417-4.289-4.016-7.385-4.016-4.858 0-8.796 3.938-8.796 8.796 0 9.013 16.181 17.918 16.181 17.918s16.181-9.773 16.181-17.918z" fill="#b674f2"/></g><g><path d="m121.866 373.348c0-4.858-3.938-8.796-8.796-8.796-3.095 0-5.817 1.599-7.385 4.016-1.568-2.417-4.289-4.016-7.385-4.016-4.858 0-8.796 3.938-8.796 8.796 0 9.013 16.181 17.918 16.181 17.918s16.181-9.773 16.181-17.918z" fill="#b674f2"/></g><g><path d="m146.627 315.593c0-4.858-3.938-8.796-8.796-8.796-3.095 0-5.817 1.599-7.385 4.016-1.568-2.417-4.289-4.016-7.385-4.016-4.858 0-8.796 3.938-8.796 8.796 0 9.013 16.181 17.918 16.181 17.918s16.181-9.774 16.181-17.918z" fill="#b674f2"/></g></g></g><g><path d="m398.506 306.796h-183.029v-199.576l61.01-15.011h61.009l61.01 15.011z" fill="#fff"/></g><g><path d="m398.506 107.22-61.01-15.011h-30.504v214.587h91.514z" fill="#e9edf5"/></g><g><path d="m337.496 92.209h-61.009l30.505 51.801z" fill="#a260e5"/></g><g><path d="m337.496 92.209h-30.504v51.684.117z" fill="#7a3eb5"/></g><g><path d="m215.477 107.22-46.805 84.066 46.805 36.778z" fill="#f5e1ff"/></g><g><path d="m398.506 107.22 46.805 84.066-46.805 36.778z" fill="#e0b8ff"/></g><g><path d="m349.571 196.247c0-12.785-10.363-23.147-23.147-23.147-8.145 0-15.306 4.207-19.432 10.567-4.125-6.36-11.287-10.567-19.433-10.567-12.784 0-23.147 10.363-23.147 23.147 0 23.718 42.579 47.151 42.579 47.151s42.58-25.719 42.58-47.151z" fill="#b674f2"/></g><g><path d="m306.992 243.398s42.579-25.719 42.579-47.151c0-12.785-10.363-23.147-23.147-23.147-8.145 0-15.306 4.206-19.432 10.567z" fill="#8f4cd6"/></g></g></svg>